<svg width="165" height="14" viewBox="0 0 165 14" fill="none" xmlns="http://www.w3.org/2000/svg">
<path d="M0.782727 7.416C0.782727 6.328 1.02806 5.352 1.51873 4.488C2.00939 3.61333 2.67606 2.93067 3.51873 2.44C4.37206 1.94933 5.31606 1.704 6.35073 1.704C7.56673 1.704 8.62806 1.99733 9.53473 2.584C10.4414 3.17067 11.1027 4.00267 11.5187 5.08H9.77473C9.46539 4.408 9.01739 3.89067 8.43073 3.528C7.85473 3.16533 7.16139 2.984 6.35073 2.984C5.57206 2.984 4.87339 3.16533 4.25473 3.528C3.63606 3.89067 3.15073 4.408 2.79873 5.08C2.44673 5.74133 2.27073 6.52 2.27073 7.416C2.27073 8.30133 2.44673 9.08 2.79873 9.752C3.15073 10.4133 3.63606 10.9253 4.25473 11.288C4.87339 11.6507 5.57206 11.832 6.35073 11.832C7.16139 11.832 7.85473 11.656 8.43073 11.304C9.01739 10.9413 9.46539 10.424 9.77473 9.752H11.5187C11.1027 10.8187 10.4414 11.6453 9.53473 12.232C8.62806 12.808 7.56673 13.096 6.35073 13.096C5.31606 13.096 4.37206 12.856 3.51873 12.376C2.67606 11.8853 2.00939 11.208 1.51873 10.344C1.02806 9.48 0.782727 8.504 0.782727 7.416ZM13.1421 8.584C13.1421 7.688 13.3234 6.904 13.6861 6.232C14.0488 5.54933 14.5448 5.02133 15.1741 4.648C15.8141 4.27467 16.5234 4.088 17.3021 4.088C18.0701 4.088 18.7368 4.25333 19.3021 4.584C19.8674 4.91467 20.2888 5.33067 20.5661 5.832V4.232H22.0381V13H20.5661V11.368C20.2781 11.88 19.8461 12.3067 19.2701 12.648C18.7048 12.9787 18.0434 13.144 17.2861 13.144C16.5074 13.144 15.8034 12.952 15.1741 12.568C14.5448 12.184 14.0488 11.6453 13.6861 10.952C13.3234 10.2587 13.1421 9.46933 13.1421 8.584ZM20.5661 8.6C20.5661 7.93867 20.4328 7.36267 20.1661 6.872C19.8994 6.38133 19.5368 6.008 19.0781 5.752C18.6301 5.48533 18.1341 5.352 17.5901 5.352C17.0461 5.352 16.5501 5.48 16.1021 5.736C15.6541 5.992 15.2968 6.36533 15.0301 6.856C14.7634 7.34667 14.6301 7.92267 14.6301 8.584C14.6301 9.256 14.7634 9.84267 15.0301 10.344C15.2968 10.8347 15.6541 11.2133 16.1021 11.48C16.5501 11.736 17.0461 11.864 17.5901 11.864C18.1341 11.864 18.6301 11.736 19.0781 11.48C19.5368 11.2133 19.8994 10.8347 20.1661 10.344C20.4328 9.84267 20.5661 9.26133 20.5661 8.6ZM23.9546 8.584C23.9546 7.688 24.1359 6.904 24.4986 6.232C24.8613 5.54933 25.3573 5.02133 25.9866 4.648C26.6266 4.27467 27.3413 4.088 28.1306 4.088C28.8133 4.088 29.4479 4.248 30.0346 4.568C30.6213 4.87733 31.0693 5.288 31.3786 5.8V1.16H32.8506V13H31.3786V11.352C31.0906 11.8747 30.6639 12.3067 30.0986 12.648C29.5333 12.9787 28.8719 13.144 28.1146 13.144C27.3359 13.144 26.6266 12.952 25.9866 12.568C25.3573 12.184 24.8613 11.6453 24.4986 10.952C24.1359 10.2587 23.9546 9.46933 23.9546 8.584ZM31.3786 8.6C31.3786 7.93867 31.2453 7.36267 30.9786 6.872C30.7119 6.38133 30.3493 6.008 29.8906 5.752C29.4426 5.48533 28.9466 5.352 28.4026 5.352C27.8586 5.352 27.3626 5.48 26.9146 5.736C26.4666 5.992 26.1093 6.36533 25.8426 6.856C25.5759 7.34667 25.4426 7.92267 25.4426 8.584C25.4426 9.256 25.5759 9.84267 25.8426 10.344C26.1093 10.8347 26.4666 11.2133 26.9146 11.48C27.3626 11.736 27.8586 11.864 28.4026 11.864C28.9466 11.864 29.4426 11.736 29.8906 11.48C30.3493 11.2133 30.7119 10.8347 30.9786 10.344C31.2453 9.84267 31.3786 9.26133 31.3786 8.6ZM34.7671 8.584C34.7671 7.688 34.9484 6.904 35.3111 6.232C35.6738 5.54933 36.1698 5.02133 36.7991 4.648C37.4391 4.27467 38.1484 4.088 38.9271 4.088C39.6951 4.088 40.3618 4.25333 40.9271 4.584C41.4924 4.91467 41.9138 5.33067 42.1911 5.832V4.232H43.6631V13H42.1911V11.368C41.9031 11.88 41.4711 12.3067 40.8951 12.648C40.3298 12.9787 39.6684 13.144 38.9111 13.144C38.1324 13.144 37.4284 12.952 36.7991 12.568C36.1698 12.184 35.6738 11.6453 35.3111 10.952C34.9484 10.2587 34.7671 9.46933 34.7671 8.584ZM42.1911 8.6C42.1911 7.93867 42.0578 7.36267 41.7911 6.872C41.5244 6.38133 41.1618 6.008 40.7031 5.752C40.2551 5.48533 39.7591 5.352 39.2151 5.352C38.6711 5.352 38.1751 5.48 37.7271 5.736C37.2791 5.992 36.9218 6.36533 36.6551 6.856C36.3884 7.34667 36.2551 7.92267 36.2551 8.584C36.2551 9.256 36.3884 9.84267 36.6551 10.344C36.9218 10.8347 37.2791 11.2133 37.7271 11.48C38.1751 11.736 38.6711 11.864 39.2151 11.864C39.7591 11.864 40.2551 11.736 40.7031 11.48C41.1618 11.2133 41.5244 10.8347 41.7911 10.344C42.0578 9.84267 42.1911 9.26133 42.1911 8.6ZM49.2276 13.144C48.5556 13.144 47.9529 13.032 47.4196 12.808C46.8863 12.5733 46.4649 12.2533 46.1556 11.848C45.8463 11.432 45.6756 10.9573 45.6436 10.424H47.1476C47.1903 10.8613 47.3929 11.2187 47.7556 11.496C48.1289 11.7733 48.6143 11.912 49.2116 11.912C49.7663 11.912 50.2036 11.7893 50.5236 11.544C50.8436 11.2987 51.0036 10.9893 51.0036 10.616C51.0036 10.232 50.8329 9.94933 50.4916 9.768C50.1503 9.576 49.6223 9.38933 48.9076 9.208C48.2569 9.03733 47.7236 8.86667 47.3076 8.696C46.9023 8.51467 46.5503 8.25333 46.2516 7.912C45.9636 7.56 45.8196 7.10133 45.8196 6.536C45.8196 6.088 45.9529 5.67733 46.2196 5.304C46.4863 4.93067 46.8649 4.63733 47.3556 4.424C47.8463 4.2 48.4063 4.088 49.0356 4.088C50.0063 4.088 50.7903 4.33333 51.3876 4.824C51.9849 5.31467 52.3049 5.98667 52.3476 6.84H50.8916C50.8596 6.38133 50.6729 6.01333 50.3316 5.736C50.0009 5.45867 49.5529 5.32 48.9876 5.32C48.4649 5.32 48.0489 5.432 47.7396 5.656C47.4303 5.88 47.2756 6.17333 47.2756 6.536C47.2756 6.824 47.3663 7.064 47.5476 7.256C47.7396 7.43733 47.9743 7.58667 48.2516 7.704C48.5396 7.81067 48.9343 7.93333 49.4356 8.072C50.0649 8.24267 50.5769 8.41333 50.9716 8.584C51.3663 8.744 51.7023 8.98933 51.9796 9.32C52.2676 9.65067 52.4169 10.0827 52.4276 10.616C52.4276 11.096 52.2943 11.528 52.0276 11.912C51.7609 12.296 51.3823 12.6 50.8916 12.824C50.4116 13.0373 49.8569 13.144 49.2276 13.144ZM56.259 5.432V10.6C56.259 11.0267 56.3496 11.3307 56.531 11.512C56.7123 11.6827 57.027 11.768 57.475 11.768H58.547V13H57.235C56.4243 13 55.8163 12.8133 55.411 12.44C55.0056 12.0667 54.803 11.4533 54.803 10.6V5.432H53.667V4.232H54.803V2.024H56.259V4.232H58.547V5.432H56.259ZM61.7671 5.656C62.0231 5.15467 62.3858 4.76533 62.8551 4.488C63.3351 4.21067 63.9164 4.072 64.5991 4.072V5.576H64.2151C62.5831 5.576 61.7671 6.46133 61.7671 8.232V13H60.3111V4.232H61.7671V5.656ZM74.2799 8.28C74.2799 8.55733 74.2639 8.85067 74.2319 9.16H67.2239C67.2772 10.024 67.5705 10.7013 68.1039 11.192C68.6479 11.672 69.3039 11.912 70.0719 11.912C70.7012 11.912 71.2239 11.768 71.6399 11.48C72.0665 11.1813 72.3652 10.7867 72.5359 10.296H74.1039C73.8692 11.1387 73.3999 11.8267 72.6959 12.36C71.9919 12.8827 71.1172 13.144 70.0719 13.144C69.2399 13.144 68.4932 12.9573 67.8319 12.584C67.1812 12.2107 66.6692 11.6827 66.2959 11C65.9225 10.3067 65.7359 9.50667 65.7359 8.6C65.7359 7.69333 65.9172 6.89867 66.2799 6.216C66.6425 5.53333 67.1492 5.01067 67.7999 4.648C68.4612 4.27467 69.2185 4.088 70.0719 4.088C70.9039 4.088 71.6399 4.26933 72.2799 4.632C72.9199 4.99467 73.4105 5.496 73.7519 6.136C74.1039 6.76533 74.2799 7.48 74.2799 8.28ZM72.7759 7.976C72.7759 7.42133 72.6532 6.94667 72.4079 6.552C72.1625 6.14667 71.8265 5.84267 71.3999 5.64C70.9839 5.42667 70.5199 5.32 70.0079 5.32C69.2719 5.32 68.6425 5.55467 68.1199 6.024C67.6079 6.49333 67.3145 7.144 67.2399 7.976H72.7759ZM83.5714 13.144C82.8994 13.144 82.2967 13.032 81.7634 12.808C81.23 12.5733 80.8087 12.2533 80.4994 11.848C80.19 11.432 80.0194 10.9573 79.9874 10.424H81.4914C81.534 10.8613 81.7367 11.2187 82.0994 11.496C82.4727 11.7733 82.958 11.912 83.5554 11.912C84.11 11.912 84.5474 11.7893 84.8674 11.544C85.1874 11.2987 85.3474 10.9893 85.3474 10.616C85.3474 10.232 85.1767 9.94933 84.8354 9.768C84.494 9.576 83.966 9.38933 83.2514 9.208C82.6007 9.03733 82.0674 8.86667 81.6514 8.696C81.246 8.51467 80.894 8.25333 80.5954 7.912C80.3074 7.56 80.1634 7.10133 80.1634 6.536C80.1634 6.088 80.2967 5.67733 80.5634 5.304C80.83 4.93067 81.2087 4.63733 81.6994 4.424C82.19 4.2 82.75 4.088 83.3794 4.088C84.35 4.088 85.134 4.33333 85.7314 4.824C86.3287 5.31467 86.6487 5.98667 86.6914 6.84H85.2354C85.2034 6.38133 85.0167 6.01333 84.6754 5.736C84.3447 5.45867 83.8967 5.32 83.3314 5.32C82.8087 5.32 82.3927 5.432 82.0834 5.656C81.774 5.88 81.6194 6.17333 81.6194 6.536C81.6194 6.824 81.71 7.064 81.8914 7.256C82.0834 7.43733 82.318 7.58667 82.5954 7.704C82.8834 7.81067 83.278 7.93333 83.7794 8.072C84.4087 8.24267 84.9207 8.41333 85.3154 8.584C85.71 8.744 86.046 8.98933 86.3234 9.32C86.6114 9.65067 86.7607 10.0827 86.7714 10.616C86.7714 11.096 86.638 11.528 86.3714 11.912C86.1047 12.296 85.726 12.6 85.2354 12.824C84.7554 13.0373 84.2007 13.144 83.5714 13.144ZM96.8267 8.28C96.8267 8.55733 96.8107 8.85067 96.7787 9.16H89.7707C89.8241 10.024 90.1174 10.7013 90.6507 11.192C91.1947 11.672 91.8507 11.912 92.6187 11.912C93.2481 11.912 93.7707 11.768 94.1867 11.48C94.6134 11.1813 94.9121 10.7867 95.0827 10.296H96.6507C96.4161 11.1387 95.9467 11.8267 95.2427 12.36C94.5387 12.8827 93.6641 13.144 92.6187 13.144C91.7867 13.144 91.0401 12.9573 90.3787 12.584C89.7281 12.2107 89.2161 11.6827 88.8427 11C88.4694 10.3067 88.2827 9.50667 88.2827 8.6C88.2827 7.69333 88.4641 6.89867 88.8267 6.216C89.1894 5.53333 89.6961 5.01067 90.3467 4.648C91.0081 4.27467 91.7654 4.088 92.6187 4.088C93.4507 4.088 94.1867 4.26933 94.8267 4.632C95.4667 4.99467 95.9574 5.496 96.2987 6.136C96.6507 6.76533 96.8267 7.48 96.8267 8.28ZM95.3227 7.976C95.3227 7.42133 95.2001 6.94667 94.9547 6.552C94.7094 6.14667 94.3734 5.84267 93.9467 5.64C93.5307 5.42667 93.0667 5.32 92.5547 5.32C91.8187 5.32 91.1894 5.55467 90.6667 6.024C90.1547 6.49333 89.8614 7.144 89.7867 7.976H95.3227ZM106.525 4.232V13H105.069V11.704C104.791 12.152 104.402 12.504 103.901 12.76C103.41 13.0053 102.866 13.128 102.269 13.128C101.586 13.128 100.973 12.9893 100.429 12.712C99.8846 12.424 99.4526 11.9973 99.1326 11.432C98.8233 10.8667 98.6686 10.1787 98.6686 9.368V4.232H100.109V9.176C100.109 10.04 100.327 10.7067 100.765 11.176C101.202 11.6347 101.799 11.864 102.557 11.864C103.335 11.864 103.949 11.624 104.397 11.144C104.845 10.664 105.069 9.96533 105.069 9.048V4.232H106.525ZM121.249 8.28C121.249 8.55733 121.233 8.85067 121.201 9.16H114.193C114.246 10.024 114.539 10.7013 115.073 11.192C115.617 11.672 116.273 11.912 117.041 11.912C117.67 11.912 118.193 11.768 118.609 11.48C119.035 11.1813 119.334 10.7867 119.505 10.296H121.073C120.838 11.1387 120.369 11.8267 119.665 12.36C118.961 12.8827 118.086 13.144 117.041 13.144C116.209 13.144 115.462 12.9573 114.801 12.584C114.15 12.2107 113.638 11.6827 113.265 11C112.891 10.3067 112.705 9.50667 112.705 8.6C112.705 7.69333 112.886 6.89867 113.249 6.216C113.611 5.53333 114.118 5.01067 114.769 4.648C115.43 4.27467 116.187 4.088 117.041 4.088C117.873 4.088 118.609 4.26933 119.249 4.632C119.889 4.99467 120.379 5.496 120.721 6.136C121.073 6.76533 121.249 7.48 121.249 8.28ZM119.745 7.976C119.745 7.42133 119.622 6.94667 119.377 6.552C119.131 6.14667 118.795 5.84267 118.369 5.64C117.953 5.42667 117.489 5.32 116.977 5.32C116.241 5.32 115.611 5.55467 115.089 6.024C114.577 6.49333 114.283 7.144 114.209 7.976H119.745ZM129.25 6.52V7.752H122.866V6.52H129.25ZM142.527 4.072C143.21 4.072 143.818 4.216 144.351 4.504C144.884 4.78133 145.306 5.20267 145.615 5.768C145.924 6.33333 146.079 7.02133 146.079 7.832V13H144.639V8.04C144.639 7.16533 144.42 6.49867 143.983 6.04C143.556 5.57067 142.975 5.336 142.239 5.336C141.482 5.336 140.879 5.58133 140.431 6.072C139.983 6.552 139.759 7.25067 139.759 8.168V13H138.319V8.04C138.319 7.16533 138.1 6.49867 137.663 6.04C137.236 5.57067 136.655 5.336 135.919 5.336C135.162 5.336 134.559 5.58133 134.111 6.072C133.663 6.552 133.439 7.25067 133.439 8.168V13H131.983V4.232H133.439V5.496C133.727 5.03733 134.111 4.68533 134.591 4.44C135.082 4.19467 135.62 4.072 136.207 4.072C136.943 4.072 137.594 4.23733 138.159 4.568C138.724 4.89867 139.146 5.384 139.423 6.024C139.668 5.40533 140.074 4.92533 140.639 4.584C141.204 4.24267 141.834 4.072 142.527 4.072ZM147.923 8.584C147.923 7.688 148.105 6.904 148.467 6.232C148.83 5.54933 149.326 5.02133 149.955 4.648C150.595 4.27467 151.305 4.088 152.083 4.088C152.851 4.088 153.518 4.25333 154.083 4.584C154.649 4.91467 155.07 5.33067 155.347 5.832V4.232H156.819V13H155.347V11.368C155.059 11.88 154.627 12.3067 154.051 12.648C153.486 12.9787 152.825 13.144 152.067 13.144C151.289 13.144 150.585 12.952 149.955 12.568C149.326 12.184 148.83 11.6453 148.467 10.952C148.105 10.2587 147.923 9.46933 147.923 8.584ZM155.347 8.6C155.347 7.93867 155.214 7.36267 154.947 6.872C154.681 6.38133 154.318 6.008 153.859 5.752C153.411 5.48533 152.915 5.352 152.371 5.352C151.827 5.352 151.331 5.48 150.883 5.736C150.435 5.992 150.078 6.36533 149.811 6.856C149.545 7.34667 149.411 7.92267 149.411 8.584C149.411 9.256 149.545 9.84267 149.811 10.344C150.078 10.8347 150.435 11.2133 150.883 11.48C151.331 11.736 151.827 11.864 152.371 11.864C152.915 11.864 153.411 11.736 153.859 11.48C154.318 11.2133 154.681 10.8347 154.947 10.344C155.214 9.84267 155.347 9.26133 155.347 8.6ZM160.032 2.808C159.755 2.808 159.52 2.712 159.328 2.52C159.136 2.328 159.04 2.09333 159.04 1.816C159.04 1.53867 159.136 1.304 159.328 1.112C159.52 0.919999 159.755 0.823999 160.032 0.823999C160.299 0.823999 160.523 0.919999 160.704 1.112C160.896 1.304 160.992 1.53867 160.992 1.816C160.992 2.09333 160.896 2.328 160.704 2.52C160.523 2.712 160.299 2.808 160.032 2.808ZM160.736 4.232V13H159.28V4.232H160.736ZM164.673 1.16V13H163.217V1.16H164.673Z" fill="url(#paint0_linear_115_7247)"/>
<defs>
<linearGradient id="paint0_linear_115_7247" x1="69.4535" y1="-7.88001" x2="202.23" y2="113.723" gradientUnits="userSpaceOnUse">
<stop stop-color="#002F52"/>
<stop offset="1" stop-color="#326589"/>
</linearGradient>
</defs>
</svg>
